<?xml version="1.0"?><svg version="1.2" baseProfile="tiny-ps" viewBox="0 0 300 300" xmlns="http://www.w3.org/2000/svg" xmlns:xlink="http://www.w3.org/1999/xlink"><title>Kitsos</title><g><g fill="#fdfefe" transform="matrix(.1 0 0 -.1 0 300)"><path d="M0 1725V450h2550v2550H0V1725z"/></g><g fill="#b5ccdc" transform="matrix(.1 0 0 -.1 0 300)"><path d="m332 2618-12-12v-772l12-12c7-7 22-12 34-12h22l361 358 361 357v72l-18 16-19 17H344l-12-12zm1330-1c-13-7-315-305-673-662l-649-650-10-35-10-35V865l18-35 17-35 36-9 36-9 29 7 29 8 265 264 266 264h39l250-251c138-138 262-257 277-265l27-14h581v39l-77 88c-43 49-159 182-258 297s-228 264-286 331c-59 67-112 132-119 145l-12 22 436 437c240 240 436 441 436 447 0 5-5 15-12 22l-12 12h-300l-301-1-23-12z"/></g><g fill="#7d93a8" transform="matrix(.1 0 0 -.1 0 300)"><path d="m336 2614-16-15v-758l16-15c8-9 23-16 32-16h17l362 363 363 362v55l-20 20-20 20H351l-15-16zm1348 3-32-12-647-640-647-640-16-30-17-30 2-208 2-208 16-25 16-25 27-10 27-11 35 11 35 11 270 265c149 145 275 265 280 265 6 0 125-115 265-255l255-255 40-15 40-16 275 3 275 3-1 16-1 16-229 264c-126 145-292 337-369 427l-140 163-3 22-3 22 431 430 430 430v33l-16 6c-9 3-140 6-292 5l-277-1-31-11z"/></g><g fill="#525d6b" transform="matrix(.1 0 0 -.1 0 300)"><path d="m340 2610-20-20 4-375c3-206 8-379 11-385 3-5 18-10 32-10h27l344 343 344 342 14 33 14 32-10 20c-6 11-19 24-30 30l-19 10H360l-20-20zm1330-1-25-10-594-592c-652-650-690-689-708-720l-12-22-1-213V839l25-24 24-25h94l272 270 271 270h38l261-260 261-260 34-10 35-10h526l5 15 6 15-148 171c-82 95-207 240-279 324-71 83-174 202-228 264l-98 113 6 19 7 20 424 426 424 426v37l-297-1h-298l-25-10z"/></g><g fill="#0769ba" transform="matrix(.1 0 0 -.1 0 300)"><path d="m343 2613-13-5v-776l16-6c9-3 21-6 27-6s172 161 369 357l358 358v64l-19 11-20 10-353-1c-194 0-359-3-365-6zm1322-8-30-13-325-326-324-325 29-33 30-33-33 30-33 29-305-304-305-305-20-37-19-37V848l30-30 31-31 40 6 40 5 52 49c29 26 150 145 270 263s225 219 234 224l15 8 262-260c143-143 271-265 283-271l22-11h571v8c0 4-33 39-73 77-40 39-56 55-35 36 67-62 48-29-50 84-52 61-174 202-271 314-97 113-209 242-249 289l-73 84 6 19 7 20 424 426 424 426v37h-297l-298-1-30-14zm-520-815c33-33 57-60 54-60-2 0-31 27-64 60s-57 60-54 60c2 0 31-27 64-60zm155-145c30-30 52-55 49-55-2 0-29 25-59 55s-52 55-49 55c2 0 29-25 59-55zm145-135c27-27 47-50 44-50s-27 23-54 50c-27 28-47 50-44 50s27-22 54-50zm150-140c33-33 57-60 54-60-2 0-31 27-64 60s-57 60-54 60c2 0 31-27 64-60zm165-157 75-78-77 75c-72 69-83 80-75 80 1 0 36-35 77-77zm185-173c21-22 37-40 34-40s-23 18-44 40-37 40-34 40 23-18 44-40z"/></g><g fill="#1a1b20" transform="matrix(.1 0 0 -.1 0 300)"><path d="m343 2613-13-5v-776l16-6c9-3 21-6 27-6s172 161 369 357l358 358v64l-19 11-20 10-353-1c-194 0-359-3-365-6zm325-990-306-308-16-32-16-32V848l30-30 31-31 40 6 40 5 52 49c29 26 150 145 270 263s225 219 234 224l15 8 262-260c143-143 271-265 283-271l22-11h571v8c0 4-107 107-238 228-130 122-399 373-597 558-197 185-362 336-365 336s-143-138-312-307z"/></g></g></svg>